<?xml version="1.0" encoding="UTF-8" standalone="no"?>
<!-- Generator: Adobe Illustrator 19.1.0, SVG Export Plug-In . SVG Version: 6.00 Build 0)  -->

<svg
   xmlns:dc="http://purl.org/dc/elements/1.1/"
   xmlns:cc="http://creativecommons.org/ns#"
   xmlns:rdf="http://www.w3.org/1999/02/22-rdf-syntax-ns#"
   xmlns:svg="http://www.w3.org/2000/svg"
   xmlns="http://www.w3.org/2000/svg"
   xmlns:sodipodi="http://sodipodi.sourceforge.net/DTD/sodipodi-0.dtd"
   xmlns:inkscape="http://www.inkscape.org/namespaces/inkscape"
   version="1.1"
   id="Capa_1"
   x="0px"
   y="0px"
   viewBox="0 0 430.98561 430.98561"
   xml:space="preserve"
   inkscape:version="0.91 r13725"
   sodipodi:docname="icon.svg"
   inkscape:export-filename="C:\Users\s154619\IdeaProjects\OnDeckPlayer\res\img\icon\icon256.png"
   inkscape:export-xdpi="53.458858"
   inkscape:export-ydpi="53.458858"
   width="430.98563"
   height="430.98563"><metadata
     id="metadata41"><rdf:RDF><cc:Work
         rdf:about=""><dc:format>image/svg+xml</dc:format><dc:type
           rdf:resource="http://purl.org/dc/dcmitype/StillImage" /><dc:title></dc:title></cc:Work></rdf:RDF></metadata><defs
     id="defs39"><inkscape:perspective
       sodipodi:type="inkscape:persp3d"
       inkscape:vp_x="0 : 179.57733 : 1"
       inkscape:vp_y="0 : 1000 : 0"
       inkscape:vp_z="359.15465 : 179.57733 : 1"
       inkscape:persp3d-origin="179.57733 : 119.71822 : 1"
       id="perspective4177" /><filter
       style="color-interpolation-filters:sRGB"
       inkscape:label="Drop Shadow"
       id="filter4577"><feFlood
         flood-opacity="0.403922"
         flood-color="rgb(115,115,115)"
         result="flood"
         id="feFlood4579" /><feComposite
         in="flood"
         in2="SourceGraphic"
         operator="in"
         result="composite1"
         id="feComposite4581" /><feGaussianBlur
         in="composite1"
         stdDeviation="2.5"
         result="blur"
         id="feGaussianBlur4583" /><feOffset
         dx="0"
         dy="2.5"
         result="offset"
         id="feOffset4585" /><feComposite
         in="SourceGraphic"
         in2="offset"
         operator="over"
         result="composite2"
         id="feComposite4587" /></filter><filter
       style="color-interpolation-filters:sRGB;"
       inkscape:label="Drop Shadow"
       id="filter5105"><feFlood
         flood-opacity="0.403922"
         flood-color="rgb(0,0,0)"
         result="flood"
         id="feFlood5107" /><feComposite
         in="flood"
         in2="SourceGraphic"
         operator="in"
         result="composite1"
         id="feComposite5109" /><feGaussianBlur
         in="composite1"
         stdDeviation="6"
         result="blur"
         id="feGaussianBlur5111" /><feOffset
         dx="-1.58207e-015"
         dy="6"
         result="offset"
         id="feOffset5113" /><feComposite
         in="SourceGraphic"
         in2="offset"
         operator="over"
         result="composite2"
         id="feComposite5115" /></filter></defs><sodipodi:namedview
     pagecolor="#ffffff"
     bordercolor="#666666"
     borderopacity="1"
     objecttolerance="10"
     gridtolerance="10"
     guidetolerance="10"
     inkscape:pageopacity="0"
     inkscape:pageshadow="2"
     inkscape:window-width="1920"
     inkscape:window-height="1017"
     id="namedview37"
     showgrid="false"
     inkscape:zoom="1"
     inkscape:cx="180.49491"
     inkscape:cy="179.67754"
     inkscape:window-x="-8"
     inkscape:window-y="-8"
     inkscape:window-maximized="1"
     inkscape:current-layer="Capa_1"
     inkscape:snap-page="true"
     fit-margin-top="0"
     fit-margin-left="0"
     fit-margin-right="0"
     fit-margin-bottom="0" /><circle
     style="fill:#ffffff;fill-opacity:1;fill-rule:nonzero;stroke:none;stroke-width:46.90000153;stroke-linejoin:round;stroke-miterlimit:4;stroke-dasharray:none;stroke-opacity:1;filter:url(#filter5105)"
     id="path4169"
     cx="215.4928"
     cy="215.4928"
     r="179.57733"
     transform="matrix(1.0324837,0,0,1.0324837,-6.9999992,-6.9999992)" /><path
     style="fill:#be0000;fill-opacity:1"
     d="m 215.49368,42.321793 c -95.48301,0 -173.166028,77.688877 -173.166028,173.171887 0,95.48299 77.683018,173.16992 173.166028,173.16992 95.48999,0 173.16406,-77.68692 173.16406,-173.16992 0,-95.48301 -77.67406,-173.171887 -173.16406,-173.171887 z m 0,12.853515 c 6.59402,0 13.09121,0.408088 19.47656,1.18164 l 0.15625,2.828125 c 0.26722,4.58501 0.74064,9.134426 1.4414,13.634766 l -7.14648,0.291015 c -1.96612,0.0798 -3.7169,0.931947 -4.97266,2.253907 -1.3058,1.37465 -2.07473,3.256431 -1.99218,5.300781 0.16309,4.00964 3.54502,7.127924 7.55468,6.964844 l 9.5918,-0.388672 c 1.75578,6.6312 3.98605,13.124116 6.69531,19.441406 l -5.76562,2.4668 c -0.9378,0.40128 -1.74761,0.97645 -2.40821,1.67187 -1.93792,2.04009 -2.59098,5.11635 -1.41406,7.86719 1.57823,3.69022 5.84886,5.4005 9.53906,3.82227 l 6.45704,-2.76172 c 2.8519,5.12829 6.02371,10.1136 9.52929,14.92382 0.41719,0.57206 0.84969,1.12863 1.27539,1.69337 l -6.16211,5.33203 c -0.18335,0.15888 -0.35748,0.32345 -0.52148,0.49609 -2.54384,2.67797 -2.68756,6.89984 -0.2207,9.75196 2.62576,3.03545 7.21336,3.36714 10.24804,0.74219 l 5.96485,-5.16016 c 3.96592,4.29154 8.16818,8.31085 12.58007,12.04688 l -4.80468,6.16406 c -2.46646,3.16625 -1.89944,7.73161 1.26758,10.19726 3.16624,2.46648 7.73416,1.90846 10.19726,-1.26562 l 4.88672,-6.27344 c 5.48784,3.75743 11.23043,7.10721 17.17188,10.05274 l -2.32813,6.32031 c -1.38751,3.7656 0.54221,7.94338 4.30859,9.33008 3.7656,1.38751 7.94257,-0.543 9.33008,-4.3086 l 2.04102,-5.54297 c 6.45837,2.41436 13.10724,4.35422 19.89062,5.81446 l 0.0977,9.13086 c 0.043,4.01274 3.33102,7.23047 7.34375,7.1875 4.01274,-0.043 7.2297,-3.3302 7.1875,-7.34375 l -0.0703,-6.60742 c 4.07796,0.44463 8.19525,0.69643 12.33593,0.7871 1.01221,7.28105 1.54883,14.71566 1.54883,22.2754 0,88.543 -71.77454,160.3164 -160.31054,160.3164 -5.8032,0 -11.5321,-0.31672 -17.17579,-0.91797 l -0.0469,-0.84179 c -0.26722,-4.58501 -0.74065,-9.13638 -1.44141,-13.63672 l 7.14453,-0.28907 c 1.96612,-0.0798 3.71885,-0.9339 4.97461,-2.25585 1.3058,-1.37465 2.07474,-3.25448 1.99219,-5.29883 -0.16309,-4.00964 -3.54503,-7.12988 -7.55469,-6.9668 l -9.59179,0.39063 c -1.75578,-6.6312 -3.98606,-13.12412 -6.69532,-19.44141 l 5.76368,-2.4668 c 0.9378,-0.40128 1.74955,-0.97841 2.41015,-1.67383 1.93792,-2.04009 2.59098,-5.11439 1.41406,-7.86523 -1.57823,-3.69022 -5.84886,-5.4005 -9.53906,-3.82227 l -6.45898,2.76172 c -2.8519,-5.12829 -6.02177,-10.11556 -9.52735,-14.92578 -0.41719,-0.57206 -0.84969,-1.12863 -1.27539,-1.69336 l 6.16211,-5.33008 c 0.18335,-0.15888 0.35749,-0.32345 0.52149,-0.49609 2.54384,-2.67797 2.68756,-6.89983 0.2207,-9.75195 -2.62576,-3.03545 -7.21337,-3.36714 -10.24805,-0.74219 l -5.96484,5.16016 c -3.96592,-4.29154 -8.16818,-8.31085 -12.58008,-12.04688 l 4.80469,-6.16601 c 2.46646,-3.16625 1.89944,-7.73162 -1.26758,-10.19727 -3.16624,-2.46648 -7.73416,-1.9065 -10.19727,1.26758 l -4.88672,6.27148 c -5.48784,-3.75743 -11.23044,-7.10525 -17.17188,-10.05078 l 2.32618,-6.32031 c 1.3875,-3.7656 -0.54027,-7.94338 -4.30665,-9.33008 -3.7656,-1.38751 -7.94257,0.54299 -9.33007,4.30859 l -2.04102,5.54297 c -6.458385,-2.41436 -13.107258,-4.35421 -19.890644,-5.81445 l -0.09766,-9.13281 c -0.04298,-4.01274 -3.331017,-7.23047 -7.34375,-7.1875 -4.012739,0.043 -7.229705,3.33215 -7.1875,7.3457 l 0.07031,6.60742 c -4.760198,-0.51902 -9.571299,-0.78883 -14.414062,-0.82812 l -0.02149,0.0195 c -1.225161,-7.98869 -1.861328,-16.17052 -1.861328,-24.50195 0,-88.54201 71.776504,-160.318372 160.312514,-160.318372 z m 34.17382,3.664062 c 60.18883,13.071125 107.76739,59.93947 121.85938,119.74415 -3.27684,-0.15254 -6.53532,-0.41938 -9.76563,-0.81641 l -0.0879,-8.23828 c -0.043,-4.01274 -3.33102,-7.23047 -7.34375,-7.1875 -2.04511,0.0217 -3.88483,0.88625 -5.1914,2.26172 -1.25576,1.32196 -2.01815,3.11521 -1.9961,5.08203 l 0.0586,5.4375 c -5.00021,-1.21268 -9.9105,-2.71963 -14.70508,-4.51562 l 3.13281,-8.50782 c 1.38751,-3.7656 -0.54027,-7.94337 -4.30664,-9.33007 -2.80763,-1.03414 -5.84529,-0.22369 -7.7832,1.8164 -0.6606,0.69544 -1.19428,1.53307 -1.54688,2.49024 l -2.81836,7.65234 c -4.57124,-2.33627 -9.0011,-4.95027 -13.26758,-7.82813 l 4.29102,-5.50976 c 2.46646,-3.16625 1.89945,-7.73162 -1.26758,-10.19727 -2.975,-2.31717 -7.18466,-1.95728 -9.72851,0.7207 -0.16322,0.17183 -0.32025,0.35489 -0.46875,0.54688 l -4.39258,5.63867 c -3.67787,-3.14365 -7.19654,-6.5029 -10.52735,-10.08008 l 5.36133,-4.63867 c 3.03006,-2.62008 3.36795,-7.21261 0.74219,-10.24805 -2.62576,-3.03546 -7.21337,-3.36715 -10.24805,-0.74219 l -5.14062,4.44727 c -0.18023,-0.24367 -0.36819,-0.47932 -0.54688,-0.72461 -2.85399,-3.9168 -5.4599,-7.96385 -7.83203,-12.11524 l 7.23438,-3.0957 c 3.69098,-1.57904 5.40323,-5.84966 3.82422,-9.53906 -1.57824,-3.690222 -5.84885,-5.400498 -9.53907,-3.822268 l -8.00586,3.423828 c -2.00448,-4.6764 -3.72719,-9.457708 -5.15234,-14.330078 l 4.99219,-0.203125 c 4.00888,-0.16228 7.12715,-3.544227 6.96484,-7.554687 -0.1631,-4.009651 -3.54504,-7.127934 -7.55469,-6.964844 l -7.71289,0.3125 c -0.74682,-4.41349 -1.25106,-8.879724 -1.53125,-13.384766 z m -34.16797,82.71875 c -40.843,0 -73.94141,33.09955 -73.94141,73.93556 0,40.843 33.10541,73.93945 73.94141,73.93945 40.836,0 73.9336,-33.10345 73.9336,-73.93945 0,-40.836 -33.1046,-73.93556 -73.9336,-73.93556 z m 0,61.05665 c 7.108,0 12.87891,5.7709 12.87891,12.87891 0,7.115 -5.77791,12.88476 -12.87891,12.88476 -7.115,0 -12.88476,-5.76976 -12.88476,-12.88476 0,-7.114 5.77676,-12.87891 12.88476,-12.87891 z M 59.987808,254.57571 c 3.91314,0.12484 7.80004,0.41958 11.648437,0.89257 l 0.08789,8.23829 c 0.04298,4.01274 3.331015,7.23047 7.34375,7.1875 2.045112,-0.0217 3.884836,-0.88625 5.191406,-2.26172 1.255755,-1.32196 2.018147,-3.11521 1.996094,-5.08203 l -0.05859,-5.43946 c 5.000212,1.21268 9.910501,2.71964 14.705075,4.51563 l -3.132809,8.50976 c -1.387514,3.7656 0.540266,7.94338 4.306639,9.33008 2.80763,1.03414 5.84529,0.2237 7.7832,-1.81641 0.6606,-0.69542 1.19428,-1.53501 1.54688,-2.49218 l 2.81836,-7.65039 c 4.57123,2.33627 9.0011,4.95027 13.26758,7.82812 l -4.29102,5.50977 c -2.46646,3.16625 -1.89945,7.73161 1.26758,10.19726 2.975,2.31717 7.18467,1.95533 9.72852,-0.72265 0.16322,-0.17183 0.32025,-0.35293 0.46875,-0.54493 l 4.39257,-5.63867 c 3.67788,3.14365 7.19654,6.50095 10.52735,10.07813 l -5.36328,4.63867 c -3.03007,2.62008 -3.366,7.21456 -0.74023,10.25 2.62576,3.03546 7.21336,3.36715 10.24804,0.74219 l 5.14063,-4.44922 c 0.18023,0.24367 0.36818,0.48127 0.54687,0.72656 2.85399,3.9168 5.4599,7.96385 7.83203,12.11524 l -7.23437,3.0957 c -3.69098,1.57904 -5.40323,5.84771 -3.82422,9.53711 1.57824,3.69022 5.84884,5.40245 9.53906,3.82422 l 8.00586,-3.42383 c 2.00448,4.6764 3.7272,9.45771 5.15235,14.33008 l -4.99219,0.20117 c -4.00888,0.16228 -7.12716,3.54618 -6.96484,7.55664 0.1631,4.00965 3.54503,7.12793 7.55468,6.96484 l 7.71289,-0.31445 c 0.64922,3.8367 1.10525,7.71553 1.40039,11.62305 C 123.06758,360.41189 74.897653,314.09052 59.987808,254.57571 Z"
     id="path5"
     inkscape:connector-curvature="0" /><g
     id="g7"
     transform="translate(42.321793,42.321793)" /><g
     id="g9"
     transform="translate(42.321793,42.321793)" /><g
     id="g11"
     transform="translate(42.321793,42.321793)" /><g
     id="g13"
     transform="translate(42.321793,42.321793)" /><g
     id="g15"
     transform="translate(42.321793,42.321793)" /><g
     id="g17"
     transform="translate(42.321793,42.321793)" /><g
     id="g19"
     transform="translate(42.321793,42.321793)" /><g
     id="g21"
     transform="translate(42.321793,42.321793)" /><g
     id="g23"
     transform="translate(42.321793,42.321793)" /><g
     id="g25"
     transform="translate(42.321793,42.321793)" /><g
     id="g27"
     transform="translate(42.321793,42.321793)" /><g
     id="g29"
     transform="translate(42.321793,42.321793)" /><g
     id="g31"
     transform="translate(42.321793,42.321793)" /><g
     id="g33"
     transform="translate(42.321793,42.321793)" /><g
     id="g35"
     transform="translate(42.321793,42.321793)" /></svg>