<?xml version="1.0" encoding="UTF-8" standalone="no"?>
<!-- Generator: Adobe Illustrator 19.1.0, SVG Export Plug-In . SVG Version: 6.00 Build 0)  -->

<svg
   xmlns:dc="http://purl.org/dc/elements/1.1/"
   xmlns:cc="http://creativecommons.org/ns#"
   xmlns:rdf="http://www.w3.org/1999/02/22-rdf-syntax-ns#"
   xmlns:svg="http://www.w3.org/2000/svg"
   xmlns="http://www.w3.org/2000/svg"
   xmlns:sodipodi="http://sodipodi.sourceforge.net/DTD/sodipodi-0.dtd"
   xmlns:inkscape="http://www.inkscape.org/namespaces/inkscape"
   version="1.1"
   id="Capa_1"
   x="0px"
   y="0px"
   viewBox="0 0 346.342 346.342"
   style="enable-background:new 0 0 346.342 346.342;"
   xml:space="preserve"
   inkscape:version="0.91 r13725"
   sodipodi:docname="vinylbaseball.svg"
   inkscape:export-filename="C:\Users\s154619\IdeaProjects\OnDeckPlayer\res\img\vinylbaseball.png"
   inkscape:export-xdpi="33.263073"
   inkscape:export-ydpi="33.263073"><metadata
     id="metadata41"><rdf:RDF><cc:Work
         rdf:about=""><dc:format>image/svg+xml</dc:format><dc:type
           rdf:resource="http://purl.org/dc/dcmitype/StillImage" /><dc:title></dc:title></cc:Work></rdf:RDF></metadata><defs
     id="defs39" /><sodipodi:namedview
     pagecolor="#ffffff"
     bordercolor="#666666"
     borderopacity="1"
     objecttolerance="10"
     gridtolerance="10"
     guidetolerance="10"
     inkscape:pageopacity="0"
     inkscape:pageshadow="2"
     inkscape:window-width="3440"
     inkscape:window-height="1377"
     id="namedview37"
     showgrid="false"
     inkscape:zoom="0.88301067"
     inkscape:cx="38.140289"
     inkscape:cy="23.252661"
     inkscape:window-x="-8"
     inkscape:window-y="-8"
     inkscape:window-maximized="1"
     inkscape:current-layer="Capa_1" /><g
     id="g3"
     style="fill:#d0d0d0;fill-opacity:1"><path
       d="m 247.112,173.171 c 0,40.836 -33.098,73.941 -73.934,73.941 -40.836,0 -73.941,-33.098 -73.941,-73.941 0,-40.836 33.098,-73.934 73.941,-73.934 40.829,0 73.934,33.098 73.934,73.934 z m -61.055,0 c 0,-7.108 -5.771,-12.879 -12.879,-12.879 -7.108,0 -12.886,5.765 -12.886,12.879 0,7.115 5.771,12.886 12.886,12.886 7.101,0 12.879,-5.771 12.879,-12.886 z m 160.279,0 c 0,95.483 -77.675,173.171 -173.165,173.171 C 77.688,346.342 0.006,268.654 0.006,173.171 0.006,77.688 77.688,0 173.171,0 c 95.49,0 173.165,77.688 173.165,173.171 z m -12.854,0 c 0,-88.542 -71.775,-160.317 -160.311,-160.317 -88.536,0 -160.311,71.775 -160.311,160.317 0,88.542 71.775,160.317 160.311,160.317 88.536,0 160.311,-71.774 160.311,-160.317 z"
       id="path5"
       inkscape:connector-curvature="0"
       sodipodi:nodetypes="ssssssssssssssssssss"
       style="fill:#d0d0d0;fill-opacity:1" /></g><g
     id="g7" /><g
     id="g9" /><g
     id="g11" /><g
     id="g13" /><g
     id="g15" /><g
     id="g17" /><g
     id="g19" /><g
     id="g21" /><g
     id="g23" /><g
     id="g25" /><g
     id="g27" /><g
     id="g29" /><g
     id="g31" /><g
     id="g33" /><g
     id="g35" /><path
     inkscape:connector-curvature="0"
     d="m 155.94904,331.72839 c -0.26722,-4.58501 -0.73994,-9.13549 -1.4407,-13.63583 l 7.14488,-0.29027 c 1.96612,-0.0798 3.71706,-0.93289 4.97282,-2.25485 1.3058,-1.37465 2.0751,-3.25583 1.99255,-5.30018 -0.16309,-4.00964 -3.54537,-7.12846 -7.55503,-6.96538 l -9.59047,0.38947 c -1.75578,-6.6312 -3.98643,-13.12446 -6.69569,-19.44175 l 5.76446,-2.46654 c 0.9378,-0.40128 1.74854,-0.97722 2.40914,-1.67264 1.93792,-2.04009 2.59039,-5.11467 1.41347,-7.86551 -1.57823,-3.69022 -5.84875,-5.40162 -9.53895,-3.82339 l -6.45747,2.76269 c -2.8519,-5.12829 -6.022,-10.11478 -9.52758,-14.925 -0.41719,-0.57206 -0.85058,-1.12869 -1.27628,-1.69342 l 6.16297,-5.33059 c 0.18335,-0.15888 0.35702,-0.32388 0.52102,-0.49652 2.54384,-2.67797 2.68763,-6.90031 0.22077,-9.75243 -2.62576,-3.03545 -7.21429,-3.36675 -10.24897,-0.7418 l -5.96336,5.15941 c -3.96592,-4.29154 -8.16837,-8.30971 -12.58027,-12.04574 l 4.80359,-6.16549 c 2.46646,-3.16625 1.90004,-7.7317 -1.26698,-10.19735 -3.16624,-2.46648 -7.73426,-1.90712 -10.197363,1.26696 l -4.886245,6.272 C 88.641511,218.75681 82.897695,215.40843 76.956263,212.4629 l 2.327729,-6.32015 c 1.387505,-3.7656 -0.541685,-7.94339 -4.308058,-9.33009 -3.765606,-1.38751 -7.942588,0.54245 -9.330092,4.30805 l -2.040892,5.5426 c -6.458366,-2.41436 -13.106179,-4.35332 -19.889565,-5.81356 l -0.09856,-9.13219 c -0.04298,-4.01274 -3.331322,-7.23044 -7.344056,-7.18747 -4.012739,0.043 -7.229671,3.33051 -7.187466,7.34406 l 0.07089,6.60805 c -4.760198,-0.51902 -9.571728,-0.78923 -14.414493,-0.82852 l -6.7918628,6.2561 6.8583308,8.27615 c 4.880898,0.0462 9.721528,0.37182 14.505637,0.95982 l 0.08827,8.23891 c 0.04298,4.01274 3.331322,7.23044 7.344057,7.18747 2.045112,-0.0217 3.884321,-0.88656 5.190891,-2.26203 1.255755,-1.32196 2.01863,-3.11521 1.996577,-5.08203 L 43.875359,215.79 c 5.000212,1.21268 9.910722,2.71945 14.705299,4.51544 l -3.134227,8.50831 c -1.387514,3.7656 0.541684,7.94339 4.308058,9.33009 2.807626,1.03414 5.844661,0.22469 7.782573,-1.8154 0.660599,-0.69544 1.194147,-1.53468 1.54675,-2.49185 l 2.81781,-7.65091 c 4.571233,2.33627 9.001738,4.95056 13.268212,7.82841 l -4.290654,5.50866 c -2.466465,3.16625 -1.900048,7.73172 1.266977,10.19737 2.975001,2.31717 7.184393,1.9568 9.728237,-0.72118 0.163225,-0.17183 0.320628,-0.35382 0.469121,-0.54581 l 4.392475,-5.63858 c 3.67787,3.14365 7.19676,6.50171 10.52757,10.07889 l -5.36232,4.63869 c -3.030066,2.62008 -3.367547,7.21352 -0.74179,10.24896 2.62576,3.03546 7.21429,3.36675 10.24897,0.74179 l 5.14106,-4.44796 c 0.18023,0.24367 0.36819,0.48081 0.54688,0.7261 2.85399,3.9168 5.45828,7.96338 7.83041,12.11477 l -7.23414,3.09499 c -3.69098,1.57904 -5.40239,5.84955 -3.82338,9.53895 1.57824,3.69022 5.84874,5.40162 9.53896,3.82339 l 8.00534,-3.42477 c 2.00448,4.6764 3.72698,9.45809 5.15213,14.33046 l -4.99075,0.20252 c -4.00888,0.16228 -7.1277,3.54456 -6.96539,7.55502 0.1631,4.00965 3.54538,7.12847 7.55503,6.96538 l 7.71282,-0.31356 c 0.76445,4.51768 1.2773,9.09086 1.55316,13.70411 l 15.13806,10.5852 z"
     id="path3"
     style="fill:#d0d0d0;fill-opacity:1"
     sodipodi:nodetypes="cccsccccssccccccccccccccccccccccsccccccscscccccscccccsccccscccccccccccccccc" /><path
     inkscape:connector-curvature="0"
     d="m 192.80467,16.862963 c 0.26722,4.58501 0.73994,9.13549 1.4407,13.63583 l -7.14488,0.29027 c -1.96612,0.0798 -3.71706,0.93289 -4.97282,2.25485 -1.3058,1.37465 -2.0751,3.25583 -1.99255,5.30018 0.16309,4.00964 3.54537,7.12846 7.55503,6.96538 l 9.59047,-0.38947 c 1.75578,6.6312 3.98643,13.12446 6.69569,19.44175 l -5.76446,2.46654 c -0.9378,0.40128 -1.74854,0.97722 -2.40914,1.67264 -1.93792,2.04009 -2.59039,5.11467 -1.41347,7.86551 1.57823,3.69022 5.84875,5.40162 9.53895,3.82339 l 6.45747,-2.76269 c 2.8519,5.12829 6.022,10.11478 9.52758,14.925 0.41719,0.57206 0.85058,1.12869 1.27628,1.69342 l -6.16297,5.33059 c -0.18335,0.15888 -0.35702,0.32388 -0.52102,0.49652 -2.54384,2.677967 -2.68763,6.900307 -0.22077,9.752427 2.62576,3.03545 7.21429,3.36675 10.24897,0.7418 l 5.96336,-5.15941 c 3.96592,4.29154 8.16837,8.30971 12.58027,12.04574 l -4.80359,6.16549 c -2.46646,3.16625 -1.90004,7.7317 1.26698,10.19735 3.16624,2.46648 7.73426,1.90712 10.19736,-1.26696 l 4.88625,-6.272 c 5.48784,3.75743 11.23165,7.10581 17.17309,10.05134 l -2.32773,6.32015 c -1.38751,3.7656 0.54168,7.94339 4.30806,9.33009 3.7656,1.38751 7.94258,-0.54245 9.33009,-4.30805 l 2.04089,-5.5426 c 6.45837,2.41436 13.10618,4.35332 19.88956,5.81356 l 0.0986,9.13219 c 0.043,4.01274 3.33133,7.23044 7.34406,7.18747 4.01274,-0.043 7.22967,-3.33051 7.18747,-7.34406 l -0.0709,-6.60805 c 4.76019,0.51902 9.57173,0.78923 14.41449,0.82852 l 6.79187,-6.2561 -6.85833,-8.27615 c -4.8809,-0.0462 -9.72154,-0.37182 -14.50565,-0.95982 l -0.0883,-8.23891 c -0.043,-4.01274 -3.33132,-7.23044 -7.34405,-7.18747 -2.04511,0.0217 -3.88432,0.88656 -5.19089,2.26203 -1.25576,1.32196 -2.01863,3.11521 -1.99658,5.08203 l 0.0582,5.43807 c -5.00021,-1.21268 -9.91072,-2.71945 -14.7053,-4.51544 l 3.13423,-8.50831 c 1.38751,-3.7656 -0.54169,-7.94339 -4.30806,-9.33009 -2.80763,-1.03414 -5.84466,-0.22469 -7.78257,1.8154 -0.6606,0.69544 -1.19415,1.53468 -1.54675,2.49185 l -2.81781,7.65091 c -4.57124,-2.33627 -9.00174,-4.95056 -13.26822,-7.82841 l 4.29066,-5.50866 c 2.46646,-3.16625 1.90005,-7.73172 -1.26698,-10.197367 -2.975,-2.31717 -7.18439,-1.9568 -9.72824,0.72118 -0.16322,0.17183 -0.32062,0.35382 -0.46912,0.545807 l -4.39247,5.63858 c -3.67787,-3.14365 -7.19676,-6.501707 -10.52757,-10.078887 l 5.36232,-4.63869 c 3.03006,-2.62008 3.36755,-7.21352 0.74179,-10.24896 -2.62576,-3.03546 -7.21429,-3.36675 -10.24897,-0.74179 l -5.14106,4.44796 c -0.18023,-0.24367 -0.36819,-0.48081 -0.54688,-0.7261 -2.85399,-3.9168 -5.45828,-7.96338 -7.83041,-12.11477 l 7.23414,-3.09499 c 3.69098,-1.57904 5.40239,-5.84955 3.82338,-9.53895 -1.57824,-3.69022 -5.84874,-5.40162 -9.53896,-3.82339 l -8.00534,3.42477 c -2.00448,-4.6764 -3.72698,-9.45809 -5.15213,-14.33046 l 4.99075,-0.20252 c 4.00888,-0.16228 7.1277,-3.54456 6.96539,-7.55502 -0.1631,-4.00965 -3.54538,-7.12847 -7.55503,-6.96538 l -7.71282,0.31356 c -0.76445,-4.51768 -1.2773,-9.09086 -1.55316,-13.70411 L 192.18506,5.6138731 Z"
     id="path3-75"
     style="fill:#d0d0d0;fill-opacity:1"
     sodipodi:nodetypes="cccsccccssccccccccccccccccccccccsccccccscscccccscccccsccccscccccccccccccccc" /></svg>